<mxfile host="app.diagrams.net" modified="2023-03-28T12:40:51.012Z" agent="Mozilla/5.0 (Windows NT 10.0; Win64; x64) AppleWebKit/537.36 (KHTML, like Gecko) Chrome/111.0.0.0 Safari/537.36" etag="91Bl0FKzrZUTkIEpNFou" version="21.1.1" type="github">
  <diagram name="Pagina-1" id="hMjMNCtPBdTX2SfuTHIE">
    <mxGraphModel dx="1510" dy="375" grid="1" gridSize="10" guides="1" tooltips="1" connect="1" arrows="1" fold="1" page="1" pageScale="1" pageWidth="827" pageHeight="1169" math="0" shadow="0">
      <root>
        <mxCell id="0" />
        <mxCell id="1" parent="0" />
        <mxCell id="SE8H_QsxnCohwh4vq3oM-18" value="Pallet" style="swimlane;fontStyle=1;align=center;verticalAlign=top;childLayout=stackLayout;horizontal=1;startSize=26;horizontalStack=0;resizeParent=1;resizeParentMax=0;resizeLast=0;collapsible=1;marginBottom=0;whiteSpace=wrap;html=1;" parent="1" vertex="1">
          <mxGeometry x="320" y="240" width="160" height="146" as="geometry" />
        </mxCell>
        <mxCell id="SE8H_QsxnCohwh4vq3oM-14" value="+ height : int" style="text;strokeColor=none;fillColor=none;align=left;verticalAlign=middle;spacingLeft=4;spacingRight=4;overflow=hidden;points=[[0,0.5],[1,0.5]];portConstraint=eastwest;rotatable=0;whiteSpace=wrap;html=1;" parent="SE8H_QsxnCohwh4vq3oM-18" vertex="1">
          <mxGeometry y="26" width="160" height="30" as="geometry" />
        </mxCell>
        <mxCell id="SE8H_QsxnCohwh4vq3oM-43" value="&lt;font style=&quot;font-size: 11px;&quot;&gt;+ robotGoalPosition : Vector3&lt;/font&gt;" style="text;strokeColor=none;fillColor=none;align=left;verticalAlign=top;spacingLeft=4;spacingRight=4;overflow=hidden;rotatable=0;points=[[0,0.5],[1,0.5]];portConstraint=eastwest;whiteSpace=wrap;html=1;" parent="SE8H_QsxnCohwh4vq3oM-18" vertex="1">
          <mxGeometry y="56" width="160" height="26" as="geometry" />
        </mxCell>
        <mxCell id="SE8H_QsxnCohwh4vq3oM-3" value="&lt;font style=&quot;font-size: 12px;&quot;&gt;+ isStored : bool&lt;/font&gt;" style="text;strokeColor=none;fillColor=none;align=left;verticalAlign=middle;spacingLeft=4;spacingRight=4;overflow=hidden;points=[[0,0.5],[1,0.5]];portConstraint=eastwest;rotatable=0;whiteSpace=wrap;html=1;" parent="SE8H_QsxnCohwh4vq3oM-18" vertex="1">
          <mxGeometry y="82" width="160" height="30" as="geometry" />
        </mxCell>
        <mxCell id="SE8H_QsxnCohwh4vq3oM-20" value="" style="line;strokeWidth=1;fillColor=none;align=left;verticalAlign=middle;spacingTop=-1;spacingLeft=3;spacingRight=3;rotatable=0;labelPosition=right;points=[];portConstraint=eastwest;strokeColor=inherit;" parent="SE8H_QsxnCohwh4vq3oM-18" vertex="1">
          <mxGeometry y="112" width="160" height="8" as="geometry" />
        </mxCell>
        <mxCell id="SE8H_QsxnCohwh4vq3oM-21" value="- Start : void" style="text;strokeColor=none;fillColor=none;align=left;verticalAlign=top;spacingLeft=4;spacingRight=4;overflow=hidden;rotatable=0;points=[[0,0.5],[1,0.5]];portConstraint=eastwest;whiteSpace=wrap;html=1;" parent="SE8H_QsxnCohwh4vq3oM-18" vertex="1">
          <mxGeometry y="120" width="160" height="26" as="geometry" />
        </mxCell>
        <mxCell id="SE8H_QsxnCohwh4vq3oM-22" value="StorageSlot" style="swimlane;fontStyle=1;align=center;verticalAlign=top;childLayout=stackLayout;horizontal=1;startSize=26;horizontalStack=0;resizeParent=1;resizeParentMax=0;resizeLast=0;collapsible=1;marginBottom=0;whiteSpace=wrap;html=1;" parent="1" vertex="1">
          <mxGeometry x="120" y="240" width="160" height="114" as="geometry" />
        </mxCell>
        <mxCell id="SE8H_QsxnCohwh4vq3oM-23" value="+ height : int" style="text;strokeColor=none;fillColor=none;align=left;verticalAlign=top;spacingLeft=4;spacingRight=4;overflow=hidden;rotatable=0;points=[[0,0.5],[1,0.5]];portConstraint=eastwest;whiteSpace=wrap;html=1;" parent="SE8H_QsxnCohwh4vq3oM-22" vertex="1">
          <mxGeometry y="26" width="160" height="26" as="geometry" />
        </mxCell>
        <mxCell id="SE8H_QsxnCohwh4vq3oM-26" value="+ robotGoalPosition : Vector3" style="text;strokeColor=none;fillColor=none;align=left;verticalAlign=top;spacingLeft=4;spacingRight=4;overflow=hidden;rotatable=0;points=[[0,0.5],[1,0.5]];portConstraint=eastwest;whiteSpace=wrap;html=1;fontSize=11;" parent="SE8H_QsxnCohwh4vq3oM-22" vertex="1">
          <mxGeometry y="52" width="160" height="28" as="geometry" />
        </mxCell>
        <mxCell id="SE8H_QsxnCohwh4vq3oM-24" value="" style="line;strokeWidth=1;fillColor=none;align=left;verticalAlign=middle;spacingTop=-1;spacingLeft=3;spacingRight=3;rotatable=0;labelPosition=right;points=[];portConstraint=eastwest;strokeColor=inherit;" parent="SE8H_QsxnCohwh4vq3oM-22" vertex="1">
          <mxGeometry y="80" width="160" height="8" as="geometry" />
        </mxCell>
        <mxCell id="SE8H_QsxnCohwh4vq3oM-27" value="- OnTriggerEnter : void" style="text;strokeColor=none;fillColor=none;align=left;verticalAlign=top;spacingLeft=4;spacingRight=4;overflow=hidden;rotatable=0;points=[[0,0.5],[1,0.5]];portConstraint=eastwest;whiteSpace=wrap;html=1;" parent="SE8H_QsxnCohwh4vq3oM-22" vertex="1">
          <mxGeometry y="88" width="160" height="26" as="geometry" />
        </mxCell>
        <mxCell id="SE8H_QsxnCohwh4vq3oM-28" style="edgeStyle=orthogonalEdgeStyle;rounded=0;orthogonalLoop=1;jettySize=auto;html=1;exitX=1;exitY=0.5;exitDx=0;exitDy=0;entryX=-0.013;entryY=0.309;entryDx=0;entryDy=0;entryPerimeter=0;" parent="1" source="SE8H_QsxnCohwh4vq3oM-26" target="SE8H_QsxnCohwh4vq3oM-3" edge="1">
          <mxGeometry relative="1" as="geometry" />
        </mxCell>
        <mxCell id="SE8H_QsxnCohwh4vq3oM-30" style="edgeStyle=orthogonalEdgeStyle;rounded=0;orthogonalLoop=1;jettySize=auto;html=1;entryX=0;entryY=0.5;entryDx=0;entryDy=0;" parent="1" source="SE8H_QsxnCohwh4vq3oM-29" target="SE8H_QsxnCohwh4vq3oM-27" edge="1">
          <mxGeometry relative="1" as="geometry" />
        </mxCell>
        <mxCell id="SE8H_QsxnCohwh4vq3oM-29" value="Als OnTriggerEnter een pallet is, snapt hij de pallet op zijn plek, en geeft de height en robotGoalPosition door, en zet de isStored op true" style="shape=note;whiteSpace=wrap;html=1;backgroundOutline=1;darkOpacity=0.05;" parent="1" vertex="1">
          <mxGeometry x="-160" y="360" width="160" height="160" as="geometry" />
        </mxCell>
        <mxCell id="SE8H_QsxnCohwh4vq3oM-32" style="edgeStyle=orthogonalEdgeStyle;rounded=0;orthogonalLoop=1;jettySize=auto;html=1;entryX=0;entryY=0.5;entryDx=0;entryDy=0;" parent="1" source="SE8H_QsxnCohwh4vq3oM-31" target="SE8H_QsxnCohwh4vq3oM-23" edge="1">
          <mxGeometry relative="1" as="geometry" />
        </mxCell>
        <mxCell id="SE8H_QsxnCohwh4vq3oM-31" value="Height is de plank waarop die ligt" style="shape=note;whiteSpace=wrap;html=1;backgroundOutline=1;darkOpacity=0.05;" parent="1" vertex="1">
          <mxGeometry x="-10" y="110" width="130" height="100" as="geometry" />
        </mxCell>
        <mxCell id="SE8H_QsxnCohwh4vq3oM-34" style="edgeStyle=orthogonalEdgeStyle;rounded=0;orthogonalLoop=1;jettySize=auto;html=1;entryX=0;entryY=0.5;entryDx=0;entryDy=0;" parent="1" source="SE8H_QsxnCohwh4vq3oM-33" target="SE8H_QsxnCohwh4vq3oM-26" edge="1">
          <mxGeometry relative="1" as="geometry" />
        </mxCell>
        <mxCell id="SE8H_QsxnCohwh4vq3oM-33" value="RobotGoalPosition is een positie op de grond, waar de robot gaat staan om het product te pakken" style="shape=note;whiteSpace=wrap;html=1;backgroundOutline=1;darkOpacity=0.05;" parent="1" vertex="1">
          <mxGeometry x="-210" y="180" width="170" height="120" as="geometry" />
        </mxCell>
        <mxCell id="SE8H_QsxnCohwh4vq3oM-35" value="Robot" style="swimlane;fontStyle=1;align=center;verticalAlign=top;childLayout=stackLayout;horizontal=1;startSize=26;horizontalStack=0;resizeParent=1;resizeParentMax=0;resizeLast=0;collapsible=1;marginBottom=0;whiteSpace=wrap;html=1;" parent="1" vertex="1">
          <mxGeometry x="520" y="240" width="190" height="138" as="geometry" />
        </mxCell>
        <mxCell id="SE8H_QsxnCohwh4vq3oM-36" value="&lt;font style=&quot;font-size: 12px;&quot;&gt;+ productsInScene : List&amp;lt;Pallet&amp;gt;&lt;/font&gt;" style="text;strokeColor=none;fillColor=none;align=left;verticalAlign=top;spacingLeft=4;spacingRight=4;overflow=hidden;rotatable=0;points=[[0,0.5],[1,0.5]];portConstraint=eastwest;whiteSpace=wrap;html=1;" parent="SE8H_QsxnCohwh4vq3oM-35" vertex="1">
          <mxGeometry y="26" width="190" height="26" as="geometry" />
        </mxCell>
        <mxCell id="XyyjayR8JcrgaXDP8lsu-1" value="&lt;font style=&quot;font-size: 11px;&quot;&gt;+ requestedProducts : List&amp;lt;Product&amp;gt;&lt;/font&gt;" style="text;strokeColor=none;fillColor=none;align=left;verticalAlign=top;spacingLeft=4;spacingRight=4;overflow=hidden;rotatable=0;points=[[0,0.5],[1,0.5]];portConstraint=eastwest;whiteSpace=wrap;html=1;" vertex="1" parent="SE8H_QsxnCohwh4vq3oM-35">
          <mxGeometry y="52" width="190" height="26" as="geometry" />
        </mxCell>
        <mxCell id="XyyjayR8JcrgaXDP8lsu-3" value="+ goal : Vector3" style="text;strokeColor=none;fillColor=none;align=left;verticalAlign=top;spacingLeft=4;spacingRight=4;overflow=hidden;rotatable=0;points=[[0,0.5],[1,0.5]];portConstraint=eastwest;whiteSpace=wrap;html=1;" vertex="1" parent="SE8H_QsxnCohwh4vq3oM-35">
          <mxGeometry y="78" width="190" height="26" as="geometry" />
        </mxCell>
        <mxCell id="SE8H_QsxnCohwh4vq3oM-37" value="" style="line;strokeWidth=1;fillColor=none;align=left;verticalAlign=middle;spacingTop=-1;spacingLeft=3;spacingRight=3;rotatable=0;labelPosition=right;points=[];portConstraint=eastwest;strokeColor=inherit;" parent="SE8H_QsxnCohwh4vq3oM-35" vertex="1">
          <mxGeometry y="104" width="190" height="8" as="geometry" />
        </mxCell>
        <mxCell id="XyyjayR8JcrgaXDP8lsu-4" value="+ getProduct : void" style="text;strokeColor=none;fillColor=none;align=left;verticalAlign=top;spacingLeft=4;spacingRight=4;overflow=hidden;rotatable=0;points=[[0,0.5],[1,0.5]];portConstraint=eastwest;whiteSpace=wrap;html=1;" vertex="1" parent="SE8H_QsxnCohwh4vq3oM-35">
          <mxGeometry y="112" width="190" height="26" as="geometry" />
        </mxCell>
        <mxCell id="SE8H_QsxnCohwh4vq3oM-40" style="edgeStyle=orthogonalEdgeStyle;rounded=0;orthogonalLoop=1;jettySize=auto;html=1;entryX=0;entryY=0.5;entryDx=0;entryDy=0;" parent="1" source="SE8H_QsxnCohwh4vq3oM-3" target="SE8H_QsxnCohwh4vq3oM-35" edge="1">
          <mxGeometry relative="1" as="geometry" />
        </mxCell>
        <mxCell id="SE8H_QsxnCohwh4vq3oM-42" style="edgeStyle=orthogonalEdgeStyle;rounded=0;orthogonalLoop=1;jettySize=auto;html=1;entryX=0.503;entryY=0.987;entryDx=0;entryDy=0;entryPerimeter=0;" parent="1" source="SE8H_QsxnCohwh4vq3oM-41" target="SE8H_QsxnCohwh4vq3oM-21" edge="1">
          <mxGeometry relative="1" as="geometry" />
        </mxCell>
        <mxCell id="SE8H_QsxnCohwh4vq3oM-41" value="Wanneer de prefab van de complete Pallet spawnt, stopt hij zichzelf in de productsInScene list van de robot" style="shape=note;whiteSpace=wrap;html=1;backgroundOutline=1;darkOpacity=0.05;" parent="1" vertex="1">
          <mxGeometry x="320" y="450" width="160" height="140" as="geometry" />
        </mxCell>
      </root>
    </mxGraphModel>
  </diagram>
</mxfile>
